<?xml version="1.0" encoding="utf-8"?>
<!-- Generator: Adobe Illustrator 26.0.0, SVG Export Plug-In . SVG Version: 6.00 Build 0)  -->
<svg version="1.1" id="Layer_1" xmlns="http://www.w3.org/2000/svg" xmlns:xlink="http://www.w3.org/1999/xlink" x="0px" y="0px"
	 viewBox="0 0 512 512" style="enable-background:new 0 0 512 512;" xml:space="preserve">
<style type="text/css">
	.st0{fill:#EFC687;}
</style>
<path class="st0" d="M164.9,24.6c-7.7-18.6-28-28.5-47.4-23.2l-88,24C12.1,30.2,0,46,0,64c0,247.4,200.6,448,448,448
	c18,0,33.8-12.1,38.6-29.5l24-88c5.3-19.4-4.6-39.7-23.2-47.4l-96-40c-16.3-6.8-35.2-2.1-46.3,11.6L304.7,368
	c-70.4-33.3-127.4-90.3-160.7-160.7l49.3-40.3c13.7-11.2,18.4-30,11.6-46.3L164.9,24.6L164.9,24.6z"/>
</svg>
